<mxfile host="app.diagrams.net" modified="2024-06-11T17:21:20.697Z" agent="Mozilla/5.0 (Windows NT 10.0; Win64; x64) AppleWebKit/537.36 (KHTML, like Gecko) Chrome/125.0.0.0 Safari/537.36" version="24.5.3" etag="-cWNB7uwqLLONk_RN88o" type="github">
  <diagram name="Page-1" id="bnV4DhDvTYkkoO17DQq9">
    <mxGraphModel>
      <root>
        <mxCell id="0" />
        <mxCell id="1" parent="0" />
      </root>
    </mxGraphModel>
  </diagram>
</mxfile>
